<mxfile host="app.diagrams.net" modified="2022-10-21T05:36:31.326Z" agent="5.0 (Windows NT 10.0; Win64; x64) AppleWebKit/537.36 (KHTML, like Gecko) Chrome/106.0.0.0 Safari/537.36" etag="kkZWfjEoRtyUPG6CAsex" version="20.4.2" type="github">
  <diagram name="Page-1" id="e3a06f82-3646-2815-327d-82caf3d4e204">
    <mxGraphModel dx="3098.5" dy="777" grid="1" gridSize="10" guides="1" tooltips="1" connect="1" arrows="1" fold="1" page="1" pageScale="1.5" pageWidth="1169" pageHeight="826" background="none" math="0" shadow="0">
      <root>
        <mxCell id="0" style=";html=1;" />
        <mxCell id="1" style=";html=1;" parent="0" />
        <mxCell id="KCY-0NdnT0C5eTwdqDZB-43" value="&lt;h6&gt;&lt;span style=&quot;white-space: pre;&quot;&gt;	&lt;/span&gt;&lt;font color=&quot;#00cccc&quot;&gt;虚拟化&lt;/font&gt;&lt;/h6&gt;&lt;font color=&quot;#00cccc&quot;&gt;&lt;br&gt;&lt;br&gt;&lt;br&gt;&lt;br&gt;&lt;br&gt;&lt;br&gt;&lt;br&gt;&lt;br&gt;&lt;br&gt;&lt;br&gt;&lt;br&gt;&lt;br&gt;&lt;br&gt;&lt;br&gt;&lt;br&gt;&lt;br&gt;&lt;br&gt;&lt;br&gt;&lt;br&gt;&lt;br&gt;&lt;br&gt;&lt;br&gt;&lt;br&gt;&lt;br&gt;&lt;br&gt;&lt;br&gt;&lt;/font&gt;&lt;br&gt;" style="rounded=0;whiteSpace=wrap;html=1;fillColor=#dae8fc;strokeColor=#6c8ebf;align=left;" vertex="1" parent="1">
          <mxGeometry x="-1550" y="230" width="280" height="460" as="geometry" />
        </mxCell>
        <mxCell id="6a7d8f32e03d9370-62" value="Home Network Architecture" style="text;strokeColor=none;fillColor=none;html=1;fontSize=24;fontStyle=1;verticalAlign=middle;align=center;" parent="1" vertex="1">
          <mxGeometry x="-1466" y="80" width="861" height="40" as="geometry" />
        </mxCell>
        <mxCell id="KCY-0NdnT0C5eTwdqDZB-5" style="edgeStyle=orthogonalEdgeStyle;rounded=0;orthogonalLoop=1;jettySize=auto;html=1;" edge="1" parent="1" source="KCY-0NdnT0C5eTwdqDZB-2" target="KCY-0NdnT0C5eTwdqDZB-4">
          <mxGeometry relative="1" as="geometry" />
        </mxCell>
        <mxCell id="KCY-0NdnT0C5eTwdqDZB-2" value="China Network" style="verticalLabelPosition=bottom;sketch=0;aspect=fixed;html=1;verticalAlign=top;strokeColor=none;align=center;outlineConnect=0;shape=mxgraph.citrix.cloud;" vertex="1" parent="1">
          <mxGeometry x="-1140" y="150" width="95" height="62" as="geometry" />
        </mxCell>
        <mxCell id="KCY-0NdnT0C5eTwdqDZB-6" style="edgeStyle=orthogonalEdgeStyle;rounded=0;orthogonalLoop=1;jettySize=auto;html=1;" edge="1" parent="1" source="KCY-0NdnT0C5eTwdqDZB-3" target="KCY-0NdnT0C5eTwdqDZB-4">
          <mxGeometry relative="1" as="geometry" />
        </mxCell>
        <mxCell id="KCY-0NdnT0C5eTwdqDZB-3" value="Other Network&amp;nbsp;" style="verticalLabelPosition=bottom;sketch=0;aspect=fixed;html=1;verticalAlign=top;strokeColor=none;align=center;outlineConnect=0;shape=mxgraph.citrix.cloud;" vertex="1" parent="1">
          <mxGeometry x="-950" y="150" width="95" height="62" as="geometry" />
        </mxCell>
        <mxCell id="KCY-0NdnT0C5eTwdqDZB-10" style="edgeStyle=orthogonalEdgeStyle;rounded=0;orthogonalLoop=1;jettySize=auto;html=1;" edge="1" parent="1" source="KCY-0NdnT0C5eTwdqDZB-4" target="KCY-0NdnT0C5eTwdqDZB-9">
          <mxGeometry relative="1" as="geometry" />
        </mxCell>
        <mxCell id="KCY-0NdnT0C5eTwdqDZB-4" value="软路由" style="verticalLabelPosition=bottom;sketch=0;aspect=fixed;html=1;verticalAlign=top;strokeColor=none;align=center;outlineConnect=0;shape=mxgraph.citrix.router;" vertex="1" parent="1">
          <mxGeometry x="-1030" y="280" width="55" height="36.5" as="geometry" />
        </mxCell>
        <mxCell id="KCY-0NdnT0C5eTwdqDZB-15" style="edgeStyle=orthogonalEdgeStyle;rounded=0;orthogonalLoop=1;jettySize=auto;html=1;" edge="1" parent="1" source="KCY-0NdnT0C5eTwdqDZB-9" target="KCY-0NdnT0C5eTwdqDZB-14">
          <mxGeometry relative="1" as="geometry" />
        </mxCell>
        <mxCell id="KCY-0NdnT0C5eTwdqDZB-16" style="edgeStyle=orthogonalEdgeStyle;rounded=0;orthogonalLoop=1;jettySize=auto;html=1;" edge="1" parent="1" source="KCY-0NdnT0C5eTwdqDZB-9" target="KCY-0NdnT0C5eTwdqDZB-13">
          <mxGeometry relative="1" as="geometry" />
        </mxCell>
        <mxCell id="KCY-0NdnT0C5eTwdqDZB-18" style="edgeStyle=orthogonalEdgeStyle;rounded=0;orthogonalLoop=1;jettySize=auto;html=1;" edge="1" parent="1" source="KCY-0NdnT0C5eTwdqDZB-9" target="KCY-0NdnT0C5eTwdqDZB-17">
          <mxGeometry relative="1" as="geometry" />
        </mxCell>
        <mxCell id="KCY-0NdnT0C5eTwdqDZB-20" style="edgeStyle=orthogonalEdgeStyle;rounded=0;orthogonalLoop=1;jettySize=auto;html=1;" edge="1" parent="1" source="KCY-0NdnT0C5eTwdqDZB-9" target="KCY-0NdnT0C5eTwdqDZB-19">
          <mxGeometry relative="1" as="geometry" />
        </mxCell>
        <mxCell id="KCY-0NdnT0C5eTwdqDZB-22" style="edgeStyle=orthogonalEdgeStyle;rounded=0;orthogonalLoop=1;jettySize=auto;html=1;" edge="1" parent="1" source="KCY-0NdnT0C5eTwdqDZB-9" target="KCY-0NdnT0C5eTwdqDZB-21">
          <mxGeometry relative="1" as="geometry" />
        </mxCell>
        <mxCell id="KCY-0NdnT0C5eTwdqDZB-24" style="edgeStyle=orthogonalEdgeStyle;rounded=0;orthogonalLoop=1;jettySize=auto;html=1;" edge="1" parent="1" source="KCY-0NdnT0C5eTwdqDZB-9" target="KCY-0NdnT0C5eTwdqDZB-23">
          <mxGeometry relative="1" as="geometry" />
        </mxCell>
        <mxCell id="KCY-0NdnT0C5eTwdqDZB-27" style="edgeStyle=orthogonalEdgeStyle;rounded=0;orthogonalLoop=1;jettySize=auto;html=1;" edge="1" parent="1" source="KCY-0NdnT0C5eTwdqDZB-9" target="KCY-0NdnT0C5eTwdqDZB-26">
          <mxGeometry relative="1" as="geometry" />
        </mxCell>
        <mxCell id="KCY-0NdnT0C5eTwdqDZB-9" value="24口交换机" style="verticalLabelPosition=bottom;sketch=0;aspect=fixed;html=1;verticalAlign=top;strokeColor=none;align=center;outlineConnect=0;shape=mxgraph.citrix.switch;" vertex="1" parent="1">
          <mxGeometry x="-1048" y="400" width="92" height="41.5" as="geometry" />
        </mxCell>
        <mxCell id="KCY-0NdnT0C5eTwdqDZB-13" value="Mac" style="verticalLabelPosition=bottom;sketch=0;aspect=fixed;html=1;verticalAlign=top;strokeColor=none;align=center;outlineConnect=0;shape=mxgraph.citrix.desktop;" vertex="1" parent="1">
          <mxGeometry x="-1150" y="550" width="63.57" height="70" as="geometry" />
        </mxCell>
        <mxCell id="KCY-0NdnT0C5eTwdqDZB-34" style="edgeStyle=orthogonalEdgeStyle;rounded=0;orthogonalLoop=1;jettySize=auto;html=1;" edge="1" parent="1" source="KCY-0NdnT0C5eTwdqDZB-14" target="KCY-0NdnT0C5eTwdqDZB-30">
          <mxGeometry relative="1" as="geometry">
            <mxPoint x="-1500" y="350" as="targetPoint" />
            <Array as="points">
              <mxPoint x="-1320" y="325" />
            </Array>
          </mxGeometry>
        </mxCell>
        <mxCell id="KCY-0NdnT0C5eTwdqDZB-35" style="edgeStyle=orthogonalEdgeStyle;rounded=0;orthogonalLoop=1;jettySize=auto;html=1;" edge="1" parent="1" source="KCY-0NdnT0C5eTwdqDZB-14" target="KCY-0NdnT0C5eTwdqDZB-31">
          <mxGeometry relative="1" as="geometry" />
        </mxCell>
        <mxCell id="KCY-0NdnT0C5eTwdqDZB-36" style="edgeStyle=orthogonalEdgeStyle;rounded=0;orthogonalLoop=1;jettySize=auto;html=1;" edge="1" parent="1" source="KCY-0NdnT0C5eTwdqDZB-14" target="KCY-0NdnT0C5eTwdqDZB-32">
          <mxGeometry relative="1" as="geometry">
            <Array as="points">
              <mxPoint x="-1320" y="520" />
            </Array>
          </mxGeometry>
        </mxCell>
        <mxCell id="KCY-0NdnT0C5eTwdqDZB-41" style="edgeStyle=orthogonalEdgeStyle;rounded=0;orthogonalLoop=1;jettySize=auto;html=1;" edge="1" parent="1" source="KCY-0NdnT0C5eTwdqDZB-14" target="KCY-0NdnT0C5eTwdqDZB-38">
          <mxGeometry relative="1" as="geometry">
            <Array as="points">
              <mxPoint x="-1320" y="610" />
            </Array>
          </mxGeometry>
        </mxCell>
        <mxCell id="KCY-0NdnT0C5eTwdqDZB-14" value="KVM 虚拟化主机" style="verticalLabelPosition=bottom;sketch=0;aspect=fixed;html=1;verticalAlign=top;strokeColor=none;align=center;outlineConnect=0;shape=mxgraph.citrix.1u_2u_server;" vertex="1" parent="1">
          <mxGeometry x="-1370" y="401.2" width="100" height="39.1" as="geometry" />
        </mxCell>
        <mxCell id="KCY-0NdnT0C5eTwdqDZB-17" value="WiFi" style="verticalLabelPosition=bottom;sketch=0;aspect=fixed;html=1;verticalAlign=top;strokeColor=none;align=center;outlineConnect=0;shape=mxgraph.citrix.merchandising_server;" vertex="1" parent="1">
          <mxGeometry x="-680" y="375.75" width="75" height="90" as="geometry" />
        </mxCell>
        <mxCell id="KCY-0NdnT0C5eTwdqDZB-19" value="旁路由" style="verticalLabelPosition=bottom;sketch=0;aspect=fixed;html=1;verticalAlign=top;strokeColor=none;align=center;outlineConnect=0;shape=mxgraph.citrix.router;" vertex="1" parent="1">
          <mxGeometry x="-1251" y="583.49" width="46.74" height="31.02" as="geometry" />
        </mxCell>
        <mxCell id="KCY-0NdnT0C5eTwdqDZB-21" value="TV 机顶盒" style="verticalLabelPosition=bottom;sketch=0;aspect=fixed;html=1;verticalAlign=top;strokeColor=none;align=center;outlineConnect=0;shape=mxgraph.citrix.thin_client;" vertex="1" parent="1">
          <mxGeometry x="-1038" y="550" width="71" height="71" as="geometry" />
        </mxCell>
        <mxCell id="KCY-0NdnT0C5eTwdqDZB-23" value="树莓派集" style="verticalLabelPosition=bottom;sketch=0;aspect=fixed;html=1;verticalAlign=top;strokeColor=none;align=center;outlineConnect=0;shape=mxgraph.citrix.datacenter;" vertex="1" parent="1">
          <mxGeometry x="-918" y="550" width="66.11" height="70" as="geometry" />
        </mxCell>
        <mxCell id="KCY-0NdnT0C5eTwdqDZB-26" value="NAS" style="verticalLabelPosition=bottom;sketch=0;aspect=fixed;html=1;verticalAlign=top;strokeColor=none;align=center;outlineConnect=0;shape=mxgraph.citrix.chassis;" vertex="1" parent="1">
          <mxGeometry x="-805.01" y="548.98" width="55.01" height="71.02" as="geometry" />
        </mxCell>
        <mxCell id="KCY-0NdnT0C5eTwdqDZB-29" style="edgeStyle=orthogonalEdgeStyle;rounded=0;orthogonalLoop=1;jettySize=auto;html=1;" edge="1" parent="1" source="KCY-0NdnT0C5eTwdqDZB-28" target="KCY-0NdnT0C5eTwdqDZB-26">
          <mxGeometry relative="1" as="geometry" />
        </mxCell>
        <mxCell id="KCY-0NdnT0C5eTwdqDZB-28" value="UPS" style="verticalLabelPosition=bottom;sketch=0;aspect=fixed;html=1;verticalAlign=top;strokeColor=none;align=center;outlineConnect=0;shape=mxgraph.citrix.pbx_server;" vertex="1" parent="1">
          <mxGeometry x="-680" y="541.99" width="65" height="85" as="geometry" />
        </mxCell>
        <mxCell id="KCY-0NdnT0C5eTwdqDZB-30" value="code server" style="verticalLabelPosition=bottom;sketch=0;aspect=fixed;html=1;verticalAlign=top;strokeColor=none;align=center;outlineConnect=0;shape=mxgraph.citrix.database;" vertex="1" parent="1">
          <mxGeometry x="-1500" y="300" width="42.5" height="50" as="geometry" />
        </mxCell>
        <mxCell id="KCY-0NdnT0C5eTwdqDZB-31" value="harbor server" style="verticalLabelPosition=bottom;sketch=0;aspect=fixed;html=1;verticalAlign=top;strokeColor=none;align=center;outlineConnect=0;shape=mxgraph.citrix.database;" vertex="1" parent="1">
          <mxGeometry x="-1500" y="395.75" width="42.5" height="50" as="geometry" />
        </mxCell>
        <mxCell id="KCY-0NdnT0C5eTwdqDZB-32" value="nginx server" style="verticalLabelPosition=bottom;sketch=0;aspect=fixed;html=1;verticalAlign=top;strokeColor=none;align=center;outlineConnect=0;shape=mxgraph.citrix.database;" vertex="1" parent="1">
          <mxGeometry x="-1500" y="491.99" width="42.5" height="50" as="geometry" />
        </mxCell>
        <mxCell id="KCY-0NdnT0C5eTwdqDZB-40" value="" style="group" vertex="1" connectable="0" parent="1">
          <mxGeometry x="-1510" y="580" width="62.5" height="63" as="geometry" />
        </mxCell>
        <mxCell id="KCY-0NdnT0C5eTwdqDZB-38" value="" style="verticalLabelPosition=bottom;sketch=0;aspect=fixed;html=1;verticalAlign=top;strokeColor=none;align=center;outlineConnect=0;shape=mxgraph.citrix.database;" vertex="1" parent="KCY-0NdnT0C5eTwdqDZB-40">
          <mxGeometry x="20" width="42.5" height="50" as="geometry" />
        </mxCell>
        <mxCell id="KCY-0NdnT0C5eTwdqDZB-39" value="" style="verticalLabelPosition=bottom;sketch=0;aspect=fixed;html=1;verticalAlign=top;strokeColor=none;align=center;outlineConnect=0;shape=mxgraph.citrix.database;" vertex="1" parent="KCY-0NdnT0C5eTwdqDZB-40">
          <mxGeometry x="10" y="6.490000000000009" width="42.5" height="50" as="geometry" />
        </mxCell>
        <mxCell id="KCY-0NdnT0C5eTwdqDZB-37" value="&amp;nbsp; &amp;nbsp; &amp;nbsp; &amp;nbsp;k8s server" style="verticalLabelPosition=bottom;sketch=0;aspect=fixed;html=1;verticalAlign=top;strokeColor=none;align=center;outlineConnect=0;shape=mxgraph.citrix.database;" vertex="1" parent="KCY-0NdnT0C5eTwdqDZB-40">
          <mxGeometry y="13" width="42.5" height="50" as="geometry" />
        </mxCell>
      </root>
    </mxGraphModel>
  </diagram>
</mxfile>
